<?xml version="1.0" encoding="UTF-8" standalone="no"?>
<!-- Created with Inkscape (http://www.inkscape.org/) -->

<svg
   width="1280"
   height="640"
   viewBox="0 0 338.66666 169.33333"
   version="1.1"
   id="svg1"
   xml:space="preserve"
   inkscape:export-filename="SocialPreviewRetina.png"
   inkscape:export-xdpi="192"
   inkscape:export-ydpi="192"
   inkscape:version="1.4 (86a8ad7, 2024-10-11)"
   sodipodi:docname="SocialPreview.svg"
   xmlns:inkscape="http://www.inkscape.org/namespaces/inkscape"
   xmlns:sodipodi="http://sodipodi.sourceforge.net/DTD/sodipodi-0.dtd"
   xmlns:xlink="http://www.w3.org/1999/xlink"
   xmlns="http://www.w3.org/2000/svg"
   xmlns:svg="http://www.w3.org/2000/svg"><sodipodi:namedview
     id="namedview1"
     pagecolor="#2a1b07"
     bordercolor="#000000"
     borderopacity="0.25"
     inkscape:showpageshadow="2"
     inkscape:pageopacity="0.0"
     inkscape:pagecheckerboard="0"
     inkscape:deskcolor="#d1d1d1"
     inkscape:document-units="mm"
     inkscape:export-bgcolor="#2a1b07ff"
     inkscape:zoom="0.53858859"
     inkscape:cx="271.07889"
     inkscape:cy="316.56816"
     inkscape:window-width="1920"
     inkscape:window-height="1057"
     inkscape:window-x="-8"
     inkscape:window-y="-8"
     inkscape:window-maximized="1"
     inkscape:current-layer="layer1" /><defs
     id="defs1"><rect
       x="-384.33788"
       y="-206.09423"
       width="237.65821"
       height="196.8107"
       id="rect27" /><color-profile
       name="sRGB-IEC61966-2.1"
       xlink:href="../../../../Windows/system32/spool/drivers/color/sRGB%20Color%20Space%20Profile.icm"
       id="color-profile2" /></defs><g
     inkscape:label="Vrstva 1"
     inkscape:groupmode="layer"
     id="layer1"><g
       id="g29"><g
         id="g15"><path
           id="rect1"
           style="fill:#000000;fill-opacity:0;stroke:#d18714;stroke-width:2;stroke-dasharray:none;stroke-opacity:1"
           sodipodi:type="inkscape:offset"
           inkscape:radius="0"
           inkscape:original="M 35.642578 33.597656 C 32.485886 33.597656 29.945312 36.13823 29.945312 39.294922 L 29.945312 131.98242 C 29.945312 135.13911 32.485886 137.67969 35.642578 137.67969 L 134.31836 137.67969 C 137.47505 137.67969 140.01758 135.13911 140.01758 131.98242 L 140.01758 39.294922 C 140.01758 36.13823 137.47505 33.597656 134.31836 33.597656 L 35.642578 33.597656 z "
           d="m 35.642578,33.597656 c -3.156692,0 -5.697266,2.540574 -5.697266,5.697266 v 92.687498 c 0,3.15669 2.540574,5.69727 5.697266,5.69727 h 98.675782 c 3.15669,0 5.69922,-2.54058 5.69922,-5.69727 V 39.294922 c 0,-3.156692 -2.54253,-5.697266 -5.69922,-5.697266 z"
           transform="matrix(0.98231375,0,0,1.0001691,0.52049683,-0.0144843)" /><rect
           style="fill:#000000;fill-opacity:0;stroke:#d18714;stroke-width:1.99678;stroke-dasharray:none;stroke-opacity:1"
           id="rect2"
           width="107.6842"
           height="1.7264691e-06"
           x="30.394739"
           y="51.410526" /><circle
           style="fill:#d18714;fill-opacity:1;stroke:#d18714;stroke-width:1.39863;stroke-dasharray:none;stroke-opacity:1"
           id="path2"
           cx="40.569878"
           cy="42.647587"
           r="3.340157" /><circle
           style="fill:#d18714;fill-opacity:1;stroke:#d18714;stroke-width:1.39863;stroke-dasharray:none;stroke-opacity:1"
           id="circle5"
           cx="52.211555"
           cy="42.647587"
           r="3.340157" /><circle
           style="fill:#d18714;fill-opacity:1;stroke:#d18714;stroke-width:1.39863;stroke-dasharray:none;stroke-opacity:1"
           id="circle6"
           cx="63.853233"
           cy="42.647587"
           r="3.340157" /><text
           xml:space="preserve"
           style="font-size:19.0227px;text-align:start;writing-mode:lr-tb;direction:ltr;text-anchor:start;opacity:1;fill:#d18714;fill-opacity:1;stroke:#d18714;stroke-width:0.867914;stroke-dasharray:none;stroke-opacity:1"
           x="52.586166"
           y="110.84531"
           id="text6"
           transform="scale(0.87238089,1.1462883)"><tspan
             sodipodi:role="line"
             id="tspan6"
             style="font-style:normal;font-variant:normal;font-weight:normal;font-stretch:normal;font-size:19.0227px;font-family:Monospace;-inkscape-font-specification:'Monospace, Normal';font-variant-ligatures:normal;font-variant-caps:normal;font-variant-numeric:normal;font-variant-east-asian:normal;fill:#d18714;fill-opacity:1;stroke-width:0.867914;stroke-dasharray:none"
             x="52.586166"
             y="110.84531">&lt;/&gt;</tspan></text><rect
           style="opacity:1;fill:#4c3514;fill-opacity:0.82432425;stroke:#d18714;stroke-width:1.16569;stroke-dasharray:none;stroke-opacity:1"
           id="rect6"
           width="45.815334"
           height="41.354984"
           x="37.90543"
           y="64.948662"
           rx="1.3080261" /><rect
           style="opacity:1;fill:#4c3514;fill-opacity:0.82432425;stroke:#000000;stroke-width:0;stroke-dasharray:none;stroke-opacity:0"
           id="rect7"
           width="42.724243"
           height="6.2628994"
           x="89.708939"
           y="64.903694"
           rx="0.4985697" /><rect
           style="opacity:1;fill:#4c3514;fill-opacity:0.82432425;stroke:#000000;stroke-width:0;stroke-dasharray:none;stroke-opacity:0"
           id="rect8"
           width="22.332716"
           height="5.3116598"
           x="110.23891"
           y="75.183159"
           rx="0.26061118" /><rect
           style="opacity:1;fill:#4c3514;fill-opacity:0.82432425;stroke:#000000;stroke-width:0;stroke-dasharray:none;stroke-opacity:0"
           id="rect9"
           width="22.332716"
           height="5.3116598"
           x="110.23891"
           y="83.286102"
           rx="0.26061118" /><rect
           style="opacity:1;fill:#4c3514;fill-opacity:0.82432425;stroke:#000000;stroke-width:0;stroke-dasharray:none;stroke-opacity:0"
           id="rect10"
           width="14.891957"
           height="7.4235325"
           x="110.22507"
           y="93.359596"
           rx="0.17378139" /><rect
           style="opacity:1;fill:#4c3514;fill-opacity:0.82432425;stroke:#000000;stroke-width:0;stroke-dasharray:none;stroke-opacity:0"
           id="rect11"
           width="16.91576"
           height="25.599968"
           x="89.934227"
           y="75.183159"
           rx="0.19739813" /><rect
           style="opacity:1;fill:#4c3514;fill-opacity:0.82432425;stroke:#000000;stroke-width:0;stroke-dasharray:none;stroke-opacity:0"
           id="rect12"
           width="24.890127"
           height="10.648019"
           x="89.768097"
           y="105.56898"
           rx="0.29045483" /><rect
           style="opacity:1;fill:#4c3514;fill-opacity:0.82432425;stroke:#000000;stroke-width:0;stroke-dasharray:none;stroke-opacity:0"
           id="rect13"
           width="14.227545"
           height="10.648"
           x="118.28623"
           y="105.56898"
           rx="0.16602805" /><rect
           style="opacity:1;fill:#4c3514;fill-opacity:0.82432425;stroke:#000000;stroke-width:0;stroke-dasharray:none;stroke-opacity:0"
           id="rect14"
           width="28.459435"
           height="10.569957"
           x="103.87555"
           y="118.72409"
           rx="0.3321068" /><rect
           style="opacity:1;fill:#4c3514;fill-opacity:0.82432425;stroke:#000000;stroke-width:0;stroke-dasharray:none;stroke-opacity:0"
           id="rect15"
           width="11.333589"
           height="10.57"
           x="89.554298"
           y="118.72409"
           rx="0.1322571" /></g><text
         xml:space="preserve"
         style="font-style:normal;font-variant:normal;font-weight:normal;font-stretch:normal;font-size:24.6944px;line-height:0;font-family:Monospace;-inkscape-font-specification:'Monospace, Normal';font-variant-ligatures:normal;font-variant-caps:normal;font-variant-numeric:normal;font-variant-east-asian:normal;text-align:start;word-spacing:0px;writing-mode:lr-tb;direction:ltr;text-anchor:start;opacity:1;fill:#eae0d5;fill-opacity:1;stroke:#000000;stroke-width:0;stroke-dasharray:none;stroke-opacity:0"
         x="161.46075"
         y="50.892445"
         id="text15"><tspan
           sodipodi:role="line"
           id="tspan15"
           style="font-style:normal;font-variant:normal;font-weight:bold;font-stretch:normal;font-size:24.6944px;font-family:sans-serif;-inkscape-font-specification:'sans-serif, Normal';font-variant-ligatures:normal;font-variant-caps:normal;font-variant-numeric:normal;font-variant-east-asian:normal;word-spacing:0px;fill:#eae0d5;fill-opacity:1;stroke-width:0"
           x="161.46075"
           y="50.892445">Jan Čáp</tspan><tspan
           sodipodi:role="line"
           style="font-style:normal;font-variant:normal;font-weight:normal;font-stretch:normal;font-size:24.6944px;font-family:Monospace;-inkscape-font-specification:'Monospace, Normal';font-variant-ligatures:normal;font-variant-caps:normal;font-variant-numeric:normal;font-variant-east-asian:normal;word-spacing:0px;fill:#eae0d5;fill-opacity:1;stroke-width:0"
           x="161.46075"
           y="50.892445"
           id="tspan16" /></text><text
         xml:space="preserve"
         style="font-style:normal;font-variant:normal;font-weight:normal;font-stretch:normal;font-size:19.7259px;line-height:0;font-family:Monospace;-inkscape-font-specification:'Monospace, Normal';font-variant-ligatures:normal;font-variant-caps:normal;font-variant-numeric:normal;font-variant-east-asian:normal;text-align:start;letter-spacing:0px;word-spacing:0px;writing-mode:lr-tb;direction:ltr;text-anchor:start;opacity:1;fill:#eae0d5;fill-opacity:1;stroke:#000000;stroke-width:0;stroke-dasharray:none;stroke-opacity:0"
         x="161.27472"
         y="79.991158"
         id="text17"><tspan
           id="tspan17"
           style="font-style:normal;font-variant:normal;font-weight:normal;font-stretch:normal;font-size:10.5833px;font-family:Sans;-inkscape-font-specification:'Sans, Normal';font-variant-ligatures:normal;font-variant-caps:normal;font-variant-numeric:normal;font-variant-east-asian:normal;text-align:start;letter-spacing:0px;word-spacing:0px;writing-mode:lr-tb;text-anchor:start;fill:#eae0d5;fill-opacity:1;stroke-width:0"
           x="161.27472"
           y="79.991158"
           sodipodi:role="line"
           dy="-10.71"
           dx="0"
           rotate="0 0 0 0 0 0 0 0 0 0 0 0 0 0 0 0 0 0 0 0 0 0 0 0">Information Technology </tspan><tspan
           style="font-style:normal;font-variant:normal;font-weight:normal;font-stretch:normal;font-size:10.5833px;font-family:Sans;-inkscape-font-specification:'Sans, Normal';font-variant-ligatures:normal;font-variant-caps:normal;font-variant-numeric:normal;font-variant-east-asian:normal;text-align:start;letter-spacing:0px;word-spacing:0px;writing-mode:lr-tb;text-anchor:start;fill:#eae0d5;fill-opacity:1;stroke-width:0"
           x="161.27472"
           y="82.173233"
           sodipodi:role="line"
           id="tspan20"
           rotate="0 0 0 0 0 0 0 0">Student</tspan></text><text
         xml:space="preserve"
         style="font-style:normal;font-variant:normal;font-weight:normal;font-stretch:normal;font-size:19.7259px;line-height:0;font-family:Monospace;-inkscape-font-specification:'Monospace, Normal';font-variant-ligatures:normal;font-variant-caps:normal;font-variant-numeric:normal;font-variant-east-asian:normal;text-align:start;writing-mode:lr-tb;direction:ltr;text-anchor:start;opacity:1;fill:#eae0d5;fill-opacity:1;stroke:#000000;stroke-width:0;stroke-dasharray:none;stroke-opacity:0"
         x="160.93365"
         y="95.702637"
         id="text18"><tspan
           sodipodi:role="line"
           id="tspan18"
           style="font-style:normal;font-variant:normal;font-weight:normal;font-stretch:normal;font-size:10.5833px;font-family:Sans;-inkscape-font-specification:'Sans, Normal';font-variant-ligatures:normal;font-variant-caps:normal;font-variant-numeric:normal;font-variant-east-asian:normal;fill:#eae0d5;fill-opacity:1;stroke-width:0"
           x="160.93365"
           y="95.702637">Beginner Web Developer</tspan></text><text
         xml:space="preserve"
         style="font-style:normal;font-variant:normal;font-weight:normal;font-stretch:normal;font-size:19.7259px;line-height:0;font-family:Monospace;-inkscape-font-specification:'Monospace, Normal';font-variant-ligatures:normal;font-variant-caps:normal;font-variant-numeric:normal;font-variant-east-asian:normal;text-align:start;writing-mode:lr-tb;direction:ltr;text-anchor:start;opacity:1;fill:#d18714;fill-opacity:1;stroke:#000000;stroke-width:0;stroke-dasharray:none;stroke-opacity:0"
         x="160.93365"
         y="111.25776"
         id="text19"><tspan
           sodipodi:role="line"
           id="tspan19"
           style="font-style:normal;font-variant:normal;font-weight:bold;font-stretch:normal;font-size:10.5833px;font-family:Sans;-inkscape-font-specification:'Sans, Normal';font-variant-ligatures:normal;font-variant-caps:normal;font-variant-numeric:normal;font-variant-east-asian:normal;fill:#d18714;fill-opacity:1;stroke-width:0"
           x="160.93365"
           y="111.25776">HTML <tspan
   style="font-weight:normal"
   id="tspan22">•</tspan> CSS <tspan
   style="font-weight:normal"
   id="tspan21">•</tspan> JavaScript </tspan></text><g
         id="g26"
         transform="matrix(0.98158771,0,0,0.98158771,85.565456,-61.711883)"><ellipse
           style="opacity:1;fill:#ffffff;fill-opacity:0.809524;stroke:#000000;stroke-width:0;stroke-dasharray:none;stroke-opacity:0"
           id="path25"
           cx="208.45239"
           cy="194.83559"
           rx="8.767581"
           ry="9.0666008" /><path
           d="m 208.37106,184.10704 c -5.4553,0 -9.87834,4.42304 -9.87834,9.87834 0,4.62885 3.18742,8.50196 7.48448,9.57377 -0.046,-0.13347 -0.0756,-0.28811 -0.0756,-0.47992 v -1.6884 c -0.40089,0 -1.07262,0 -1.24138,0 -0.67583,0 -1.27677,-0.29059 -1.56818,-0.83059 -0.32351,-0.6001 -0.37948,-1.51796 -1.18129,-2.0794 -0.23801,-0.18698 -0.0569,-0.40004 0.21717,-0.37123 0.50627,0.14312 0.9261,0.49061 1.32124,1.00594 0.39348,0.51613 0.5787,0.63302 1.3138,0.63302 0.35646,0 0.88989,-0.0218 1.39205,-0.0996 0.27006,-0.68573 0.73675,-1.3171 1.30721,-1.6151 -3.28947,-0.33832 -4.8593,-1.97486 -4.8593,-4.19666 0,-0.95654 0.40748,-1.8818 1.09977,-2.66137 -0.22712,-0.7738 -0.51283,-2.35188 0.0871,-2.95282 1.4801,0 2.37491,0.95986 2.58977,1.21915 0.7376,-0.25263 1.54762,-0.39594 2.39881,-0.39594 0.8528,0 1.66612,0.14312 2.40536,0.39759 0.2125,-0.25761 1.10803,-1.2208 2.59143,-1.2208 0.60256,0.60178 0.31361,2.18642 0.084,2.95858 0.68819,0.77792 1.09318,1.70072 1.09318,2.65561 0,2.22015 -1.56734,3.85585 -4.85189,4.19582 0.90386,0.4717 1.56323,1.79705 1.56323,2.79558 v 2.25062 c 0,0.0856 -0.0187,0.14747 -0.028,0.22059 3.84928,-1.34921 6.61438,-5.0042 6.61438,-9.31445 0,-5.4553 -4.42304,-9.87834 -9.87834,-9.87834 z"
           id="path1"
           style="stroke-width:0.823194" /></g><g
         id="g22"
         transform="matrix(0.52561708,0,0,0.52561708,187.09705,116.08712)"><path
           fill="#0277bd"
           d="M 41,5 H 7 l 3,34 14,4 14,-4 z"
           id="path1-4" /><path
           fill="#039be5"
           d="M 24,8 V 39.9 L 35.2,36.7 37.7,8 Z"
           id="path2-5" /><path
           fill="#ffffff"
           d="M 33.1,13 H 24 v 4 h 4.9 l -0.3,4 H 24 v 4 h 4.4 l -0.3,4.5 -4.1,1.4 v 4.2 L 31.9,32.5 32.6,21 v 0 z"
           id="path3" /><path
           fill="#eeeeee"
           d="m 24,13 v 4 h -8.9 l -0.3,-4 z m -4.6,8 0.2,4 H 24 v -4 z m 0.4,6 h -4 l 0.3,5.5 7.9,2.6 v -4.2 l -4.1,-1.4 z"
           id="path4" /></g><g
         id="g23"
         transform="matrix(0.52561708,0,0,0.52561708,158.23618,116.08712)"><path
           fill="#e65100"
           d="M 41,5 H 7 l 3,34 14,4 14,-4 z"
           id="path1-5" /><path
           fill="#ff6d00"
           d="M 24,8 V 39.9 L 35.2,36.7 37.7,8 Z"
           id="path2-1" /><path
           fill="#ffffff"
           d="m 24,25 v -4 h 8.6 L 31.9,32.5 24,35.1 v -4.2 l 4.1,-1.4 0.3,-4.5 z m 8.9,-8 0.3,-4 H 24 v 4 z"
           id="path3-7" /><path
           fill="#eeeeee"
           d="m 24,30.9 v 4.2 L 16.1,32.5 15.7,27 h 4 l 0.2,2.5 z M 19.1,17 H 24 v -4 h -9.1 l 0.7,12 H 24 v -4 h -4.6 z"
           id="path4-1" /></g><g
         id="g24"
         transform="matrix(0.5387008,0,0,0.5387008,216.40503,115.77311)"><path
           fill="#ffd600"
           d="M 6,42 V 6 h 36 v 36 z"
           id="path1-1" /><path
           fill="#000001"
           d="m 29.538,32.947 c 0.692,1.124 1.444,2.201 3.037,2.201 1.338,0 2.04,-0.665 2.04,-1.585 0,-1.101 -0.726,-1.492 -2.198,-2.133 L 31.61,31.086 c -2.329,-0.988 -3.878,-2.226 -3.878,-4.841 0,-2.41 1.845,-4.244 4.728,-4.244 2.053,0 3.528,0.711 4.592,2.573 l -2.514,1.607 c -0.553,-0.988 -1.151,-1.377 -2.078,-1.377 -0.946,0 -1.545,0.597 -1.545,1.377 0,0.964 0.6,1.354 1.985,1.951 l 0.807,0.344 C 36.452,29.645 38,30.839 38,33.523 38,36.415 35.716,38 32.65,38 29.651,38 27.948,36.495 27,34.632 Z m -11.586,0.082 c 0.506,0.906 1.275,1.603 2.381,1.603 1.058,0 1.667,-0.418 1.667,-2.043 V 22 h 3.333 v 11.101 c 0,3.367 -1.953,4.899 -4.805,4.899 -2.577,0 -4.437,-1.746 -5.195,-3.368 z"
           id="path2-52" /></g><g
         id="g25"
         transform="matrix(0.48500336,0,0,0.48500336,248.07343,117.08286)"><path
           fill="#29b6f6"
           d="m 44,11.11 v 25.78 c 0,1.27 -0.79,2.4 -1.98,2.82 L 33.2,43.85 34,33 V 15 L 33.2,4.15 42.02,8.29 C 43.21,8.71 44,9.84 44,11.11 Z"
           id="path1-7" /><path
           fill="#0277bd"
           d="M 9,33.896 34,15 V 5.353 C 34,4.155 32.518,3.595 31.725,4.493 L 4.658,29.239 c -0.9,0.83 -0.849,2.267 0.107,3.032 0,0 1.324,1.232 1.803,1.574 C 7.304,34.37 8.271,34.43 9,33.896 Z"
           id="path2-6" /><path
           fill="#0288d1"
           d="M 9,14.104 34,33 v 9.647 c 0,1.198 -1.482,1.758 -2.275,0.86 L 4.658,18.761 c -0.9,-0.83 -0.849,-2.267 0.107,-3.032 0,0 1.324,-1.232 1.803,-1.574 C 7.304,13.63 8.271,13.57 9,14.104 Z"
           id="path3-1" /></g></g><text
       xml:space="preserve"
       transform="scale(0.26458333)"
       id="text27"
       style="fill:#ffffff;text-orientation:auto;text-align:start;writing-mode:lr-tb;direction:ltr;fill-opacity:0.80952382;stroke:#000000;stroke-opacity:0;stroke-width:0;stroke-dasharray:none;opacity:1;line-height:0;-inkscape-font-specification:'Sans, Normal';font-family:Sans;font-weight:normal;font-style:normal;font-stretch:normal;font-variant:normal;font-size:40px;font-variant-ligatures:normal;font-variant-caps:normal;font-variant-numeric:normal;font-variant-east-asian:normal;word-spacing:0px;letter-spacing:0px;white-space:pre;shape-inside:url(#rect27)" /></g></svg>
